<svg xmlns="http://www.w3.org/2000/svg" width="25" height="25" viewBox="0 0 25 25">
  <defs>
    <style>
      .cls-1 {
        fill: #e35e95;
        fill-rule: evenodd;
      }
    </style>
  </defs>
  <path id="Фигура_1" data-name="Фигура 1" class="cls-1" d="M23.415,6.347A6.937,6.937,0,0,0,17.222,2q-0.139,0-.28,0A8.091,8.091,0,0,0,12.5,3.337,8.091,8.091,0,0,0,8.057,2C7.963,2,7.87,2,7.777,2A6.937,6.937,0,0,0,1.584,6.347a7.293,7.293,0,0,0,1.251,7.707q0.028,0.032.059,0.062l8.846,8.575a1.088,1.088,0,0,0,1.52,0l8.846-8.575q0.031-.03.059-0.062A7.293,7.293,0,0,0,23.415,6.347Zm-2.861,6.179L12.5,20.333,4.445,12.526a5.046,5.046,0,0,1-.835-5.3A4.7,4.7,0,0,1,7.852,4.243q0.1,0,.206,0a5.831,5.831,0,0,1,3.729,1.332,1.088,1.088,0,0,0,1.347.063q0.033-.024.064-0.049a5.831,5.831,0,0,1,3.745-1.346c0.069,0,.138,0,0.206,0a4.7,4.7,0,0,1,4.241,2.981A5.047,5.047,0,0,1,20.554,12.526Z"/>
</svg>
